PathFileType  4	(X/Y/Z) C:\Users\antoi\Documents\MyRepositories\mobilecap\ResultsAnalysis
DataRate	CameraRate	NumFrames	NumMarkers	Units	OrigDataRate	OrigDataStartFrame	OrigNumFrames
100.0	100.0	4	51	mm	100.0	61	240
Frame#	Time	r_knee			r_shank_antsup			r_ankle			r_calc			r_5meta			r_toe			L_knee			L_shank_antsup			L_ankle			L_calc			L_5meta			L_toe			r_sh2			r_sh3			r_sh4			L_sh2			L_sh3			r_thigh1			r_thigh2			r_thigh3			r_thigh4			r_thigh5			L_thigh1			L_thigh2			L_thigh3			L_thigh4			r.ASIS			r.PSIS			L.ASIS			L.PSIS			C7			R_Shoulder			L_Shoulder			R_Sternum			L_Sternum			R_humerus			R_elbow_med			R_elbow_lat			R_forearm			R_wrist_radius			R_wrist_ulna			L_humerus			L_elbow_med			L_elbow_lat			L_forearm			L_wrist_radius			L_wrist_ulna			R_HJC			L_HJC			R_HJC_reg			L_HJC_reg			
		X1	Y1	Z1	X2	Y2	Z2	X3	Y3	Z3	X4	Y4	Z4	X5	Y5	Z5	X6	Y6	Z6	X7	Y7	Z7	X8	Y8	Z8	X9	Y9	Z9	X10	Y10	Z10	X11	Y11	Z11	X12	Y12	Z12	X13	Y13	Z13	X14	Y14	Z14	X15	Y15	Z15	X16	Y16	Z16	X17	Y17	Z17	X18	Y18	Z18	X19	Y19	Z19	X20	Y20	Z20	X21	Y21	Z21	X22	Y22	Z22	X23	Y23	Z23	X24	Y24	Z24	X25	Y25	Z25	X26	Y26	Z26	X27	Y27	Z27	X28	Y28	Z28	X29	Y29	Z29	X30	Y30	Z30	X31	Y31	Z31	X32	Y32	Z32	X33	Y33	Z33	X34	Y34	Z34	X35	Y35	Z35	X36	Y36	Z36	X37	Y37	Z37	X38	Y38	Z38	X39	Y39	Z39	X40	Y40	Z40	X41	Y41	Z41	X42	Y42	Z42	X43	Y43	Z43	X44	Y44	Z44	X45	Y45	Z45	X46	Y46	Z46	X47	Y47	Z47	X48	Y48	Z48	X49	Y49	Z49	X50	Y50	Z50	X51	Y51	Z51	

61	0.60000000	-999.88725	752.40019	-454.11757	-982.22108	670.77574	-473.10139	-1199.28937	406.08943	-481.55158	-1276.89640	373.91878	-517.64672	-1106.03973	352.64453	-442.64645	-1056.91146	376.42553	-498.38788	-982.50109	753.31925	-732.83694	-981.71321	653.58868	-731.90387	-1185.27407	410.99945	-723.38790	-1260.50966	374.83164	-687.31363	-1085.73995	352.85041	-762.40663	-1046.76082	373.12421	-704.69038	-1054.44875	581.36775	-453.35411	-1043.38329	716.24626	-441.52634	-1111.98215	627.04729	-438.50761	-1053.94198	703.23211	-748.55862	-1111.74334	595.42789	-758.80801	-1017.17797	1071.96494	-431.19882	-991.25316	962.31383	-434.45432	-1095.38183	931.50560	-424.07632	-1126.87326	1044.84359	-417.02632	-1041.50649	926.66045	-408.51118	-1008.47041	1019.53748	-790.92460	-966.65065	891.60125	-758.41173	-1118.80433	986.91619	-768.41692	-1070.25808	856.40133	-750.10500	-1015.42559	1203.24226	-470.95149	-1181.05649	1290.37883	-563.71469	-991.30604	1189.31243	-718.02374	-1177.46322	1294.41987	-665.56169	-1020.15613	1674.67199	-603.89555	-939.20087	1599.26547	-425.61584	-937.63504	1625.37593	-777.74579	-899.22404	1597.63055	-577.99585	-891.16309	1602.65021	-618.13254	-955.76585	1458.82132	-372.68661	-1046.52982	1264.73857	-426.86752	-1019.84187	1268.02350	-360.58576	-947.14648	1146.70126	-369.10908	-909.40484	1016.82072	-385.82805	-932.39883	1007.16052	-360.16519	-934.93027	1501.96195	-833.78668	-1034.53692	1283.66651	-783.54542	-991.77047	1293.67685	-849.15373	-937.09180	1193.49388	-827.70214	-915.51485	1038.65743	-821.35732	-933.38689	1035.47638	-847.57216	-1109.14380	1146.97232	-500.41027	-1090.84226	1141.99120	-706.00570	-1096.53498	1142.02875	-510.44913	-1090.75321	1148.53077	-674.32187	
62	0.61000000	-996.25021	750.44126	-454.01953	-979.07490	668.87302	-472.79817	-1198.99681	406.37444	-481.53523	-1276.76994	374.19586	-517.66412	-1105.96611	352.63527	-442.51045	-1056.78343	376.28041	-498.39220	-978.10701	751.38807	-732.76490	-978.01872	651.55855	-731.22750	-1184.61405	411.53179	-723.75040	-1260.23741	375.41761	-687.32654	-1085.59162	352.70903	-762.35567	-1046.54688	372.94405	-704.71728	-1052.26142	580.20056	-453.17621	-1039.79988	715.17958	-441.31189	-1109.03324	626.53554	-438.23069	-1049.54486	702.09865	-748.37874	-1108.56971	595.05413	-758.91254	-1015.10092	1069.79369	-431.04493	-988.83665	960.61490	-433.84583	-1092.72876	929.68338	-422.95755	-1124.70970	1042.11643	-417.29984	-1038.63725	924.35883	-408.31914	-1005.86451	1016.95523	-790.83461	-963.16554	889.41487	-758.18361	-1115.97918	983.63462	-767.96206	-1066.49419	853.61380	-749.74355	-1013.14343	1199.80754	-471.08346	-1178.11738	1288.30731	-563.82516	-989.44394	1185.44517	-718.08897	-1174.51601	1292.36508	-665.68679	-1013.61488	1670.91322	-603.89839	-932.96680	1594.91811	-425.69418	-931.12822	1621.01604	-777.74261	-893.12583	1593.12393	-578.08568	-885.15019	1598.13561	-618.16144	-950.26428	1454.55275	-372.81950	-1042.67657	1260.68930	-426.63734	-1015.11092	1264.13115	-360.28075	-942.14714	1142.75980	-369.30807	-903.92823	1013.05782	-386.49622	-926.97768	1003.18262	-360.73348	-928.95465	1497.53963	-833.76367	-1029.65614	1279.59846	-783.52398	-986.86676	1289.63556	-849.60602	-932.43025	1189.28153	-828.15165	-911.13525	1034.31423	-821.82037	-929.00307	1031.50676	-848.15610	-1107.45154	1144.37097	-500.42278	-1089.34328	1139.04573	-706.02684	-1094.85854	1139.10477	-510.57540	-1089.06641	1145.63050	-674.39234	
63	0.62000000	-992.17471	748.34916	-453.84415	-975.57416	666.79987	-472.38884	-1198.56523	406.72130	-481.50571	-1276.51105	374.61719	-517.68970	-1105.88599	352.64865	-442.31487	-1056.60093	376.05744	-498.41630	-973.38646	749.46255	-732.64180	-974.00858	649.47041	-730.58942	-1183.80551	412.11841	-724.01020	-1259.77587	376.31227	-687.33927	-1085.35887	352.58814	-762.42474	-1046.21686	372.70091	-704.81627	-1049.79881	578.78824	-453.05952	-1036.35069	714.42222	-440.67571	-1105.86813	625.98564	-437.97015	-1044.87666	700.97523	-748.22001	-1105.20353	594.63536	-758.73893	-1013.06369	1067.51019	-430.91076	-985.93716	958.53044	-433.89919	-1089.80507	926.91352	-422.51273	-1122.45604	1039.21928	-417.50226	-1035.66181	921.85560	-408.48724	-1003.19955	1014.27517	-790.74329	-959.52823	887.15873	-757.95398	-1113.12208	980.13042	-767.64305	-1062.52697	850.59073	-749.24608	-1010.81075	1196.24477	-471.19711	-1175.04650	1286.01906	-563.91020	-986.43549	1182.08541	-718.20369	-1171.33467	1290.12395	-665.76016	-1007.04780	1666.81233	-603.82766	-926.68722	1590.34001	-425.88323	-924.56548	1616.42524	-777.76636	-887.19073	1588.25133	-578.65969	-879.14006	1593.42295	-618.18399	-944.64102	1450.11983	-372.84506	-1038.39432	1256.47969	-426.22996	-1010.11553	1259.91207	-360.06402	-936.93231	1138.65007	-369.48406	-898.10361	1009.01960	-387.54620	-921.17662	999.22205	-361.04969	-922.96513	1492.86754	-833.51644	-1024.70876	1275.43253	-784.03678	-981.87538	1285.29421	-849.80843	-927.60836	1184.87044	-828.52061	-906.42247	1030.10667	-822.33181	-924.38892	1026.96233	-847.97185	-1105.33494	1141.42473	-500.73737	-1086.87345	1136.36946	-706.32053	-1092.69369	1136.28235	-510.78857	-1086.72233	1142.88558	-674.62749	
64	0.63000000	-987.59369	746.20289	-453.53131	-971.73663	664.50540	-472.11375	-1197.98812	407.13403	-481.42681	-1276.26076	375.22482	-517.73040	-1105.72742	352.67002	-442.14695	-1056.32457	375.83007	-498.33552	-968.39126	747.03908	-731.75319	-969.60157	647.36104	-730.12059	-1182.83887	412.71437	-723.94817	-1259.20767	377.50113	-687.38791	-1085.09173	352.47882	-762.48110	-1045.75563	372.33623	-704.86805	-1046.99979	577.39715	-452.76246	-1032.01876	712.74840	-440.21467	-1102.50649	625.13050	-437.50458	-1039.75668	699.82788	-747.96832	-1101.57238	594.19652	-758.21972	-1011.05477	1065.06706	-430.71081	-982.52610	956.01163	-434.75357	-1086.63708	923.57165	-422.69341	-1120.16093	1035.99325	-417.52530	-1032.56666	919.07623	-409.06946	-1000.50446	1011.46391	-790.66159	-955.72909	884.80383	-757.62683	-1110.15221	976.40354	-767.46984	-1058.34722	847.27761	-748.56423	-1008.59619	1192.54954	-471.32060	-1171.93059	1283.53220	-563.97830	-984.36384	1178.18662	-718.37362	-1168.19084	1287.65675	-665.78377	-1000.43734	1662.30354	-603.86533	-920.32402	1585.40335	-426.12492	-917.95768	1611.51540	-777.89757	-881.35213	1582.99380	-579.53539	-873.18023	1588.28079	-617.89628	-938.94020	1445.45980	-372.80910	-1032.65267	1252.15796	-426.46695	-1005.00102	1255.28000	-360.22064	-931.44465	1134.31164	-369.72960	-891.92955	1004.69925	-388.89572	-915.02499	995.20579	-361.61253	-916.94483	1488.00436	-833.56085	-1019.73189	1271.11115	-784.89128	-976.78539	1280.68272	-849.96942	-922.60370	1180.22235	-828.91671	-901.39849	1025.77394	-822.95246	-919.62408	1022.11771	-847.94270	-1103.46386	1138.43995	-500.83788	-1085.10111	1133.26005	-706.42473	-1090.91871	1133.13766	-510.94215	-1084.89921	1139.77658	-674.80947	
